<svg xmlns="http://www.w3.org/2000/svg" viewBox="0 0 486.475 486.475"><g fill="#010002"><path d="M243.155 153.048c20.47 0 37.063-16.593 37.063-37.06 0-20.474-16.594-37.066-37.063-37.066-20.47 0-37.062 16.592-37.062 37.065 0 20.468 16.593 37.06 37.062 37.06zM314.813 265.096c2.517-21.16 5.787-87.428-49.273-105.667-1.104-.37-9.793-3.52-13.153-4.338l-9.13 9.398-9.048-9.394c-.043.008-.065.008-.097.015-3.442.83-12.088 3.98-13.086 4.326-55.366 19.356-51.908 84.696-49.3 105.668h-33.723v24.76h11.826v116.787h22.99V289.858h23.787c-1.767 3.093-2.616 6.724-2.198 10.483l10.95 90.897c.976 8.81 8.44 15.342 17.127 15.342.63 0 1.266-.04 1.9-.1 9.468-1.062 16.298-9.578 15.247-19.042l-9.533-77.996 13.104-5.356 12.676 5.28-9.46 78.15c-1.03 9.473 5.814 17.98 15.275 19.004a16.3 16.3 0 0 0 1.88.113c8.69 0 16.165-6.54 17.133-15.363l10.866-90.962c.413-3.736-.43-7.366-2.194-10.453h24.113v116.78h22.984V289.858h11.995v-24.76h-33.66zm-109.59.003h-4.41c-.93-6.2-4.442-34.47 4.41-55.584V265.1zm38.068-27.26h-.164l-8.988-12.24 8.988-59.743h.165l8.894 59.744-8.893 12.24zm42.46 27.26h-4.66v-55.774c9.18 21.203 5.588 49.58 4.66 55.773z"/><g><circle cx="72.203" cy="135.089" r="35.507"/><path d="M153.926 232.614c-42.317 3.135-47.83-11.66-58.142-39.287-3.6-10.104-13.588-16.935-23.11-19.287 0 0-3.734-1.12-7.702-1.044-3.826.088-8.068.975-8.068.975l-.104.008c-11.953 2.91-24.667 12.628-24.7 27.23l-.077 78.357c-.02 17.02 11.632 26.1 27.304 26.123l21.896-.026s23.25-.75 21.125 24.125c-1.52 17.807-3.854 37.696-5.71 59.028-.824 9.48 6.188 17.846 15.682 18.675.51.046 1.014.063 1.517.063 8.84 0 16.37-6.755 17.156-15.732 8.143-93.187 4.502-98.887 1.995-104.76-2.715-5.115-8.068-12.206-35.808-14.14l.03-22.994c9.62 7.367 22.557 10.845 42.24 10.845 5.048 0 10.522-.223 16.514-.656 7.582-.563 13.28-7.188 12.726-14.774-.563-7.592-7.18-13.274-14.764-12.726z"/><path d="M82.752 312.683h-23.53c-36.375 0-32.687-32.896-32.687-32.896v-69.245c0-7.325-5.935-13.258-13.268-13.258-7.33 0-13.267 5.933-13.267 13.258v115.402c0 4.32 2.104 8.127 5.308 10.552v69.79h15.914v-67.064h47.762v67.064h15.912v-67.288c6.295-1.035 11.113-6.46 11.113-13.046 0-7.345-5.925-13.27-13.258-13.27z"/><circle cx="414.274" cy="135.089" r="35.507"/><path d="M384.13 329.787c-2.125-24.875 21.125-24.125 21.125-24.125l21.896.026c15.673-.022 27.327-9.102 27.305-26.123l-.076-78.357c-.035-14.602-12.75-24.32-24.702-27.23l-.104-.007s-4.242-.886-8.068-.974c-3.968-.077-7.7 1.044-7.7 1.044-9.524 2.352-19.512 9.183-23.112 19.287-10.313 27.627-15.824 42.422-58.142 39.287-7.586-.548-14.2 5.134-14.763 12.725-.556 7.586 5.143 14.21 12.725 14.773 5.992.434 11.466.657 16.513.657 19.685 0 32.623-3.478 42.242-10.845l.03 22.993c-27.74 1.935-33.094 9.025-35.808 14.14-2.508 5.874-6.148 11.573 1.994 104.762.787 8.978 8.315 15.732 17.156 15.732.504 0 1.006-.017 1.518-.063 9.492-.83 16.505-9.197 15.68-18.676-1.855-21.33-4.19-41.22-5.71-59.027z"/><path d="M473.21 197.285c-7.334 0-13.268 5.933-13.268 13.258v69.245s3.688 32.896-32.688 32.896h-23.53c-7.333 0-13.26 5.924-13.258 13.27 0 6.585 4.82 12.01 11.113 13.046v67.288h15.912v-67.064h47.76v67.064h15.915v-69.79c3.203-2.425 5.308-6.232 5.308-10.552V210.543c0-7.325-5.937-13.258-13.266-13.258z"/></g></g></svg>