<svg xmlns="http://www.w3.org/2000/svg" width="45.877" height="45.877" viewBox="0 0 45.877 45.877"><path d="M40.135 18.997C40.135 8.522 31.613 0 21.137 0c-.4 0-.797.017-1.19.04v2.407c.394-.028.788-.06 1.19-.06 9.16 0 16.61 7.45 16.61 16.61s-7.45 16.61-16.61 16.61c-.268 0-.53-.027-.795-.04v7.128h-5.898v3.182h13.388v-3.182h-5.104V37.92c9.733-.81 17.407-8.984 17.407-18.923z"/><path d="M24.52 8.352c.21-1.58.367-2.82.45-3.485a14.92 14.92 0 0 0-5.15-.615c-.966.062-1.897.212-2.788.443 1.576.68 3.89 1.958 6.225 4.224.35-.302.78-.504 1.263-.568zM18.783 28.13a2.446 2.446 0 0 1-1.006-1.48c-2.85-.794-5.238-2.276-7.164-3.893a2.41 2.41 0 0 1-1.12.283 2.39 2.39 0 0 1-.786-.142c-.855 1.39-1.29 2.457-1.465 2.944a15.16 15.16 0 0 0 2.707 3.876 15.012 15.012 0 0 0 6.003 3.754c.49-.87 1.606-2.89 2.83-5.34zM9.494 18.13c.357 0 .693.08 1 .216 1.38-1.484 3.143-3.048 5.404-4.55 2.156-1.435 4.38-2.373 6.498-2.986l-.002-.037c0-.24.045-.47.11-.69-3.28-3.24-6.554-4.42-7.493-4.707-4.437 1.872-7.616 5.797-8.778 10.204a25.073 25.073 0 0 0 2.06 2.877 2.426 2.426 0 0 1 1.202-.327zM7.04 20.585c0-.417.114-.803.296-1.146a29.256 29.256 0 0 1-1.477-1.95 14.52 14.52 0 0 0-.118 1.79c0 1.677.277 3.29.783 4.794.258-.553.613-1.215 1.068-1.954a2.432 2.432 0 0 1-.554-1.535zM27.137 9.904c2.188-.22 4.027-.15 5.207-.042a15.105 15.105 0 0 0-6.08-4.537c-.09.712-.232 1.832-.418 3.21a2.46 2.46 0 0 1 1.29 1.37zM25.174 13.27a207.65 207.65 0 0 1-.53 3.382c-.36 2.196-1.42 5.047-2.647 7.83.363.41.592.94.615 1.527a35.29 35.29 0 0 0 4.732-.002c.13-.79.64-1.447 1.332-1.79-.057-2.854-.63-6.067-2.334-9.087a24.193 24.193 0 0 0-1.168-1.86zM33.39 11.34c-.546-.083-2.954-.4-6.136-.078a2.443 2.443 0 0 1-.865 1.407c.384.565.76 1.162 1.12 1.8 1.803 3.195 2.445 6.542 2.535 9.514a2.437 2.437 0 0 1 1.898 1.328c1.432-.348 2.373-.717 2.768-.893.6-1.62.93-3.37.93-5.194 0-2.89-.826-5.592-2.25-7.885zM29.758 28.865l-.025-.002a27.64 27.64 0 0 1-.555 2.687 15.11 15.11 0 0 0 4.76-5.396c-.477.16-1.064.33-1.748.494a2.45 2.45 0 0 1-2.432 2.217zM27.494 27.355c-.767.056-1.578.09-2.45.09-.868 0-1.796-.04-2.77-.108a2.44 2.44 0 0 1-2.108 1.222c-.03 0-.057-.01-.084-.01a128.47 128.47 0 0 1-2.797 5.294 14.91 14.91 0 0 0 10.19-1.27c.185-.563.636-2.072.935-4.113a2.45 2.45 0 0 1-.916-1.105zM20.844 23.754c1.156-2.638 2.145-5.3 2.477-7.32.192-1.154.37-2.307.536-3.418a2.47 2.47 0 0 1-1.06-.904c-2.02.573-4.13 1.455-6.155 2.8-2.128 1.416-3.802 2.896-5.108 4.3.264.392.42.865.42 1.373 0 .445-.13.856-.336 1.217 1.717 1.425 3.81 2.71 6.254 3.453a2.453 2.453 0 0 1 2.297-1.606c.236-.002.46.04.677.104z"/></svg>