<?xml version="1.0" encoding="UTF-8" standalone="no"?>
<svg
   xmlns:dc="http://purl.org/dc/elements/1.1/"
   xmlns:cc="http://creativecommons.org/ns#"
   xmlns:rdf="http://www.w3.org/1999/02/22-rdf-syntax-ns#"
   xmlns:svg="http://www.w3.org/2000/svg"
   xmlns="http://www.w3.org/2000/svg"
   viewBox="0 0 546.66669 548"
   height="548"
   width="546.66669"
   xml:space="preserve"
   id="svg2"
   version="1.1"><metadata
     id="metadata8"><rdf:RDF><cc:Work
         rdf:about=""><dc:format>image/svg+xml</dc:format><dc:type
           rdf:resource="http://purl.org/dc/dcmitype/StillImage" /></cc:Work></rdf:RDF></metadata><defs
     id="defs6" /><g
     transform="matrix(1.3333333,0,0,-1.3333333,0,548)"
     id="g10"><g
       transform="scale(0.1)"
       id="g12"><path
         id="path14"
         style="fill:#000000;fill-opacity:1;fill-rule:nonzero;stroke:none"
         d="m 2252.81,3150.26 c -37.69,0 -68.28,-30.59 -68.28,-68.24 v -409.61 c 0,-37.7 30.59,-68.28 68.28,-68.28 h 273.05 c 37.69,0 68.28,30.58 68.28,68.28 v 409.61 c 0,37.65 -30.59,68.24 -68.28,68.24 z m 204.81,-409.61 h -136.57 v 273.08 h 136.57 z" /><path
         id="path16"
         style="fill:#000000;fill-opacity:1;fill-rule:nonzero;stroke:none"
         d="m 477.852,2331.08 c 37.699,0 68.277,30.58 68.277,68.24 V 3423.34 H 3549.88 V 2399.32 c 0,-37.66 30.55,-68.24 68.24,-68.24 37.7,0 68.29,30.58 68.29,68.24 v 1092.27 c 0,37.69 -30.59,68.28 -68.29,68.28 H 2048.01 v 409.61 h 341.33 v -136.57 h -204.81 c -37.65,0 -68.24,-30.58 -68.24,-68.24 0,-37.69 30.59,-68.28 68.24,-68.28 h 273.09 c 37.65,0 68.24,30.59 68.24,68.28 v 273.05 c 0,37.69 -30.59,68.28 -68.24,68.28 h -477.89 c -37.66,0 -68.25,-30.59 -68.25,-68.28 V 3559.87 H 477.891 c -37.692,0 -68.282,-30.59 -68.282,-68.24 V 2399.36 c 0,-37.7 30.59,-68.28 68.243,-68.28 z" /><path
         id="path18"
         style="fill:#000000;fill-opacity:1;fill-rule:nonzero;stroke:none"
         d="m 2935.47,3150.26 c -37.7,0 -68.28,-30.59 -68.28,-68.24 v -409.61 c 0,-37.7 30.58,-68.28 68.28,-68.28 h 273.05 c 37.69,0 68.28,30.58 68.28,68.28 v 409.61 c 0,37.65 -30.59,68.24 -68.28,68.24 z m 204.8,-409.61 h -136.56 v 273.08 h 136.56 z" /><path
         id="path20"
         style="fill:#000000;fill-opacity:1;fill-rule:nonzero;stroke:none"
         d="M 4027.73,146.551 H 68.2813 C 30.5898,146.551 0,115.961 0,78.2695 0,40.6094 30.5898,9.98047 68.2813,9.98047 H 4027.73 c 37.66,0 68.25,30.58983 68.25,68.28903 0,37.6915 -30.55,68.2815 -68.25,68.2815 z" /><path
         id="path22"
         style="fill:#000000;fill-opacity:1;fill-rule:nonzero;stroke:none"
         d="m 2525.86,556.121 c 37.69,0 68.28,30.578 68.28,68.277 v 955.742 c 0,18.09 -7.19,35.51 -20,48.24 -6.44,6.45 -160.78,156.57 -526.13,156.57 -365.35,0 -519.73,-150.12 -526.13,-156.57 -12.86,-12.73 -20,-30.15 -20,-48.24 V 624.398 c 0,-37.699 30.58,-68.277 68.24,-68.277 37.69,0 68.28,30.578 68.28,68.277 v 922.692 c 41.8,28.68 150,87.04 341.33,98.79 V 965.73 c -37.66,0 -68.25,-30.589 -68.25,-68.25 0,-37.691 30.59,-68.281 68.25,-68.281 V 624.398 c 0,-37.66 30.58,-68.238 68.28,-68.238 37.65,0 68.24,30.578 68.24,68.238 v 204.801 c 37.7,0 68.28,30.59 68.28,68.281 0,37.661 -30.58,68.25 -68.28,68.25 v 680.15 c 191.76,-11.79 299.96,-70.31 341.37,-98.71 V 624.398 c 0,-37.699 30.58,-68.277 68.24,-68.277 z" /><path
         id="path24"
         style="fill:#000000;fill-opacity:1;fill-rule:nonzero;stroke:none"
         d="m 1228.79,351.352 c 0,-37.692 30.59,-68.282 68.28,-68.282 h 1501.88 c 37.65,0 68.24,30.59 68.24,68.282 0,37.66 -30.59,68.238 -68.24,68.238 H 1297.07 c -37.69,0 -68.28,-30.578 -68.28,-68.238 z" /><path
         id="path26"
         style="fill:#000000;fill-opacity:1;fill-rule:nonzero;stroke:none"
         d="m 341.328,419.59 c -37.656,0 -68.238,-30.578 -68.238,-68.238 0,-37.692 30.582,-68.282 68.238,-68.282 h 682.652 c 37.7,0 68.29,30.59 68.29,68.282 0,37.66 -30.59,68.238 -68.29,68.238 h -68.242 v 1638.4 H 3140.27 V 419.59 h -68.28 c -37.65,0 -68.24,-30.578 -68.24,-68.238 0,-37.692 30.59,-68.282 68.24,-68.282 h 682.66 c 37.69,0 68.28,30.59 68.28,68.282 0,37.66 -30.59,68.238 -68.28,68.238 h -68.24 v 1638.4 h 68.24 c 37.69,0 68.28,30.59 68.28,68.28 0,37.66 -30.59,68.25 -68.28,68.25 H 341.328 c -37.656,0 -68.238,-30.59 -68.238,-68.25 0,-37.69 30.539,-68.28 68.238,-68.28 h 68.281 V 419.59 Z M 3276.8,2057.99 h 273.08 V 419.59 H 3276.8 Z m -2730.671,0 h 273.09 V 419.59 h -273.09 z" /><path
         id="path28"
         style="fill:#000000;fill-opacity:1;fill-rule:nonzero;stroke:none"
         d="m 887.461,3150.26 c -37.691,0 -68.242,-30.59 -68.242,-68.24 v -409.61 c 0,-37.7 30.551,-68.28 68.242,-68.28 h 273.089 c 37.65,0 68.24,30.58 68.24,68.28 v 409.61 c 0,37.65 -30.59,68.24 -68.24,68.24 z M 1092.27,2740.65 H 955.738 v 273.08 h 136.532 z" /><path
         id="path30"
         style="fill:#000000;fill-opacity:1;fill-rule:nonzero;stroke:none"
         d="m 1570.12,3150.26 c -37.66,0 -68.24,-30.59 -68.24,-68.24 v -409.61 c 0,-37.7 30.58,-68.28 68.24,-68.28 h 273.08 c 37.7,0 68.25,30.58 68.25,68.28 v 409.61 c 0,37.65 -30.55,68.24 -68.25,68.24 z m 204.8,-409.61 H 1638.4 v 273.08 h 136.52 z" /></g></g></svg>