<svg xmlns="http://www.w3.org/2000/svg" viewBox="0 0 496.84 496.84"><path d="M398.248 196.8c.016 0 .03-.01.045-.01-.016 0-.045.01-.08.01h.035zM375.394 184.2c-4.127-6.522-8.348-13.474-12.59-20.544H65.918c-16.167 0-29.32 13.154-29.32 29.322v35.213c0 16.167 13.153 29.317 29.32 29.317h173.558a3.064 3.064 0 0 1 3.06 3.057v48.58c0 16.84 13.707 30.54 30.537 30.54h78.5c3.594 0 6.522 2.917 6.522 6.51v110.99c0 3.593-2.93 6.515-6.522 6.515H183.016c-5.55 9.49-11.197 18.804-16.65 27.43-1.38 2.173-3.075 4.052-4.936 5.71h190.143c21.866 0 39.665-17.793 39.665-39.656v-110.99c0-21.862-17.8-39.653-39.665-39.653h-75.895v-45.976c0-19.96-16.247-36.2-36.2-36.2H69.74V196.8h328.473c-9.336-.027-17.863-4.745-22.82-12.6z"/><path d="M143.516 306.938c-34.226 0-61.994 27.754-61.994 61.994 0 26.103 36.037 86.254 53.156 113.36a10.47 10.47 0 0 0 8.838 4.862c3.592 0 6.926-1.844 8.837-4.87 17.136-27.116 53.157-87.25 53.157-113.353 0-34.24-27.754-61.992-61.994-61.992zm0 92.595c-15.36 0-27.804-12.45-27.804-27.81 0-15.364 12.444-27.81 27.804-27.81 15.358 0 27.803 12.445 27.803 27.81-.002 15.36-12.446 27.81-27.804 27.81zM398.248 0c-34.23 0-62 27.754-62 61.994 0 26.106 36.023 86.238 53.163 113.354a10.467 10.467 0 0 0 8.838 4.88c3.572 0 6.926-1.847 8.832-4.874 17.125-27.104 53.162-87.254 53.162-113.36C460.242 27.755 432.488 0 398.248 0zm0 92.598c-15.36 0-27.804-12.453-27.804-27.81 0-15.366 12.444-27.81 27.804-27.81 15.354 0 27.8 12.443 27.8 27.81 0 15.357-12.446 27.81-27.8 27.81z"/></svg>