<svg xmlns="http://www.w3.org/2000/svg" viewBox="0 0 357.157 357.157"><ellipse cx="62.58" cy="137.477" rx="32.521" ry="32.187"/><path d="M124.946 248.606l-21.684-57.315c-.552-1.453-5.216-11.055-13.877-11.055-2.74 0-50.253.072-51.808.072H35.78c-9.694 0-13.323 9.53-13.873 10.984L.22 248.607c-.55 1.454-.23 3.26 2.82 3.26h16.003c2.916 0 3.824-2.552 3.824-2.552l10.338-27.74s1.3-3.552 1.3.3c0 5.297.07 19.444.104 26.243.01 2.292.366 3.75 3.074 3.75H90.48c3.75 0 3.292-1.953 3.284-4.896-.02-7.175-.056-20.246-.056-25.305 0-2.603.923-.826.923-.826l9.71 28.04s.927 2.985 4.364 2.985h13.26c3.155.002 3.533-1.805 2.982-3.26zm-49.598-16.438l-10.912 10.035c-1.02.94-2.69.94-3.712 0L49.81 232.168c-1.02-.938-1.622-2.817-1.338-4.174l5.69-27.172c.085-.406.342-1.636.32-1.915l-.447-5.73a2.302 2.302 0 0 1 2.324-2.515H68.8a2.3 2.3 0 0 1 2.323 2.515l-.447 5.73c-.02.278.236 1.51.32 1.915l5.69 27.172c.286 1.357-.317 3.236-1.338 4.174z"/><ellipse cx="294.58" cy="137.477" rx="32.521" ry="32.187"/><path d="M356.946 248.606l-21.684-57.315c-.55-1.453-5.216-11.055-13.877-11.055-2.74 0-50.253.072-51.808.072h-1.796c-9.694 0-13.323 9.53-13.873 10.984l-21.686 57.316c-.55 1.454-.23 3.26 2.82 3.26h16.004c2.915 0 3.823-2.552 3.823-2.552l10.34-27.74s1.298-3.552 1.298.3c0 5.297.07 19.444.104 26.243.01 2.292.366 3.75 3.074 3.75h52.796c3.75 0 3.292-1.953 3.284-4.896-.02-7.175-.056-20.246-.056-25.305 0-2.603.922-.826.922-.826l9.71 28.04s.927 2.985 4.364 2.985h13.26c3.155.002 3.533-1.805 2.982-3.26zm-49.598-16.438l-10.912 10.035c-1.02.94-2.69.94-3.712 0l-10.913-10.035c-1.02-.938-1.622-2.817-1.338-4.174l5.69-27.172c.085-.406.342-1.636.32-1.915l-.447-5.73a2.302 2.302 0 0 1 2.324-2.515h12.44a2.3 2.3 0 0 1 2.323 2.515l-.447 5.73c-.02.278.236 1.51.32 1.915l5.69 27.172c.286 1.357-.317 3.236-1.338 4.174zM65.838 82.56a9.496 9.496 0 0 0 13.19-2.554c21.904-32.425 58.31-51.782 97.38-51.782 30.86 0 61.145 12.57 83.09 34.487.64.638.617.948.612.98-.015.11-.172.306-.484.484l-6.205 2.742c-2.567 1.135-3.995 2.77-4.02 4.602-.023 1.833 1.36 3.505 3.9 4.707l25.026 11.855c1.26.597 2.55.9 3.836.9 3.77 0 6.777-2.558 7.66-6.518l5.43-24.37c.518-2.326.243-4.24-.796-5.538-1.388-1.73-3.944-2.03-6.858-.74l-6.662 2.943c-.312.153-.658.23-1.03.23-1.098 0-2.154-.66-2.477-1.013-25.882-28.44-62.702-44.752-101.02-44.752-45.394 0-87.684 22.484-113.126 60.145a9.438 9.438 0 0 0-1.454 7.124 9.422 9.422 0 0 0 4.008 6.07zM295.33 280.663a9.434 9.434 0 0 0-4.01-6.066 9.496 9.496 0 0 0-13.19 2.554c-21.903 32.424-58.308 51.78-97.38 51.78-30.858.002-61.144-12.568-83.09-34.486-.64-.636-.616-.946-.61-.98.014-.108.17-.303.482-.482l6.206-2.742c2.568-1.135 3.996-2.77 4.02-4.603.024-1.832-1.36-3.504-3.898-4.706l-25.027-11.855c-1.26-.597-2.55-.9-3.836-.9-3.77 0-6.777 2.56-7.66 6.52l-5.43 24.37c-.52 2.325-.243 4.24.796 5.536.81 1.013 2.013 1.547 3.475 1.548 1.037 0 2.175-.27 3.384-.805l6.662-2.944c.312-.154.658-.232 1.03-.232 1.098 0 2.154.66 2.477 1.014 25.882 28.44 62.702 44.752 101.02 44.752 45.394 0 87.684-22.484 113.126-60.145a9.45 9.45 0 0 0 1.454-7.127z"/></svg>