<svg xmlns="http://www.w3.org/2000/svg" viewBox="0 0 460.713 460.713"><path d="M344.09 407.04l.085 30.218c.037 12.968 10.56 23.455 23.52 23.455h.068c12.99-.037 23.492-10.598 23.455-23.588l-.085-30.085H344.09zM286.488 401.022l-.003 36.167c0 12.99 10.53 23.52 23.52 23.522h.002c12.99 0 23.52-10.53 23.52-23.52l.003-30.154h-29.94a27.236 27.236 0 0 1-17.102-6.016z"/><circle cx="91.124" cy="40.624" r="40.624"/><path d="M192.368 165.43l-61.55-7.22-40.252-39.996 38.18 20.017 14.077 1.652v-17.387c0-15.156-12.286-27.443-27.443-27.443H66.44C51.286 95.052 39 107.34 39 122.495l-.483 314.63c-.037 12.99 10.464 23.55 23.455 23.588h.068c12.96 0 23.483-10.487 23.52-23.455l.492-173.897v-.065h10.143l.013 173.9c0 12.99 10.533 23.52 23.523 23.52 12.99-.002 23.52-10.534 23.52-23.524-.017-209.226-.428-218.364-.428-218.364l-25.583-3c-7.825-.92-17.437-.733-23.065-11.128l-31.242-58.674 45.057 44.77a19.6 19.6 0 0 0 11.532 5.563l68.277 8.01c10.762 1.26 20.49-6.442 21.75-17.184 1.263-10.753-6.43-20.492-17.182-21.753z"/><circle cx="338.61" cy="40.624" r="40.624"/><path d="M411.805 301.04H391.26V272c0-5.523-4.478-10-10-10h-3.114l9.796-60.998c.52-3.24.22-6.558-.876-9.65l-23.21-65.536 1.394 2.07 25.486 37.88v-43.27c0-15.157-12.287-27.444-27.443-27.444h-48.94c-15.155 0-27.442 12.287-27.442 27.443v6.973l-62.827 35.914a39.025 39.025 0 0 1 4.936 24.083c-1.3 11.068-7.096 20.507-15.343 26.726.96-.362 1.906-.795 2.826-1.32l70.407-40.247-.415 115.427c8.253-6.61 16.414-6.01 20.638-6.01V272c0-10.578 6.193-20.022 15.503-24.423l8.934-55.628-3.58-40.808-1.087-12.237 21.54 60.82c-1.04 6.46-8.842 55.047-10.002 62.275h-4.306c-5.523 0-10 4.477-10 10v29.04H303.59c-5.74 0-10.393 4.653-10.393 10.392v68.215c0 5.74 4.653 10.392 10.392 10.392h108.214c5.74 0 10.392-4.654 10.392-10.393v-68.215c0-5.74-4.652-10.392-10.39-10.392zm-57.664-13.182c1.054.17 2.1.25 3.133.25 4.406 0 8.556-1.503 11.9-4.07h2.085v17h-27.124v-17h1.155a19.51 19.51 0 0 0 8.85 3.82z"/></svg>