<?xml version="1.0" encoding="UTF-8" standalone="no"?>
<svg
   xmlns:dc="http://purl.org/dc/elements/1.1/"
   xmlns:cc="http://creativecommons.org/ns#"
   xmlns:rdf="http://www.w3.org/1999/02/22-rdf-syntax-ns#"
   xmlns:svg="http://www.w3.org/2000/svg"
   xmlns="http://www.w3.org/2000/svg"
   viewBox="0 0 546.66669 548"
   height="548"
   width="546.66669"
   xml:space="preserve"
   id="svg2"
   version="1.1"><metadata
     id="metadata8"><rdf:RDF><cc:Work
         rdf:about=""><dc:format>image/svg+xml</dc:format><dc:type
           rdf:resource="http://purl.org/dc/dcmitype/StillImage" /></cc:Work></rdf:RDF></metadata><defs
     id="defs6" /><g
     transform="matrix(1.3333333,0,0,-1.3333333,0,548)"
     id="g10"><g
       transform="scale(0.1)"
       id="g12"><path
         id="path14"
         style="fill:#000000;fill-opacity:1;fill-rule:nonzero;stroke:none"
         d="m 2328.44,2163.54 c 12.07,-23.59 36.13,-37.26 60.97,-37.26 10.36,0 21.02,2.38 30.9,7.46 4.03,2.03 405.86,206.13 604.03,268.75 35.93,11.4 55.86,49.76 44.45,85.66 -11.33,35.94 -49.41,55.94 -85.67,44.57 -208.74,-66.02 -607.85,-268.75 -624.76,-277.34 -33.59,-17.07 -46.99,-58.17 -29.92,-91.84 z" /><path
         id="path16"
         style="fill:#000000;fill-opacity:1;fill-rule:nonzero;stroke:none"
         d="m 2389.41,2945.45 c 10.36,0 21.02,2.43 30.9,7.47 4.03,2.03 405.86,206.17 604.03,268.75 35.93,11.4 55.86,49.76 44.45,85.7 -11.33,35.9 -49.41,55.9 -85.67,44.57 -208.74,-66.02 -607.85,-268.79 -624.76,-277.38 -33.59,-17.07 -46.99,-58.17 -29.92,-91.8 12.07,-23.63 36.13,-37.31 60.97,-37.31 z" /><path
         id="path18"
         style="fill:#000000;fill-opacity:1;fill-rule:nonzero;stroke:none"
         d="m 4027.73,3082.02 c -37.73,0 -68.28,-30.59 -68.28,-68.28 V 351.352 c 0,-112.93 -91.87,-204.801 -204.76,-204.801 h -1638.4 v 157.07 c 99.53,34.801 358.79,115.981 614.37,115.981 594.69,0 998.48,-131.68 1002.5,-133.051 20.55,-6.801 43.48,-3.403 61.45,9.449 17.81,12.809 28.32,33.441 28.32,55.352 V 3355.06 c 0,32.04 -22.19,59.73 -53.44,66.64 0,0 -53.51,11.96 -145,28.75 -36.95,6.84 -72.65,-17.77 -79.49,-54.76 -6.8,-37.15 17.7,-72.7 54.77,-79.53 34.88,-6.41 64.1,-12.07 86.64,-16.56 V 442.059 c -154.69,40.582 -498.21,114.101 -955.75,114.101 -297.42,0 -589.61,-97.699 -680,-130.82 -80.35,35.512 -323.24,130.82 -617.07,130.82 -470.231,0 -857.57,-77.582 -1023.981,-116.961 V 3302.25 c 136.332,33.52 538.942,121.1 1023.981,121.1 248.91,0 462.39,-77.5 546.14,-112.5 V 624.398 c 0,-24.57 13.24,-47.296 34.61,-59.367 21.36,-12.152 47.73,-11.84 68.82,0.891 6.76,4.027 683.13,408.008 1283.48,608.088 27.93,9.37 46.68,35.39 46.68,64.8 v 2798.95 c 0,22.38 -10.98,43.32 -29.41,56.09 -18.29,12.78 -41.8,15.71 -62.89,7.85 -546.18,-204.88 -1098.87,-548.78 -1104.42,-552.22 -31.95,-20 -41.68,-62.11 -21.68,-94.06 19.92,-31.96 62.03,-41.72 94.06,-21.72 5.04,3.24 485.86,302.38 987.82,504.22 V 1287.68 C 2810.78,1125.77 2324.26,861.352 2116.25,742.988 V 3355.06 c 0,25.9 -14.61,49.5 -37.73,61.1 -11.76,5.82 -291.53,143.71 -644.93,143.71 -616.871,0 -1091.09,-133.48 -1111.051,-139.18 -29.258,-8.32 -49.488,-35.16 -49.488,-65.63 V 351.352 c 0,-21.364 10.109,-41.602 27.109,-54.493 12.031,-9.097 26.481,-13.789 41.168,-13.789 6.293,0 12.582,0.899 18.711,2.66 4.691,1.29 476.762,133.872 1073.551,133.872 249.57,0 462.86,-77.704 546.14,-112.582 V 146.551 H 341.328 c -112.93,0 -204.808,91.871 -204.808,204.801 V 3013.74 c 0,37.69 -30.579,68.28 -68.2387,68.28 C 30.5898,3082.02 0,3051.43 0,3013.74 V 351.352 C 0,163.109 153.121,9.98828 341.328,9.98828 H 3754.69 c 188.2,0 341.33,153.12072 341.33,341.36372 V 3013.74 c 0,37.69 -30.55,68.28 -68.29,68.28 z" /><path
         id="path20"
         style="fill:#000000;fill-opacity:1;fill-rule:nonzero;stroke:none"
         d="m 2328.44,2573.15 c 12.07,-23.63 36.13,-37.27 60.97,-37.27 10.36,0 21.02,2.39 30.9,7.43 4.03,2.07 405.86,206.17 604.03,268.79 35.93,11.4 55.86,49.76 44.45,85.66 -11.33,35.9 -49.41,55.9 -85.67,44.57 -208.74,-66.02 -607.85,-268.75 -624.76,-277.34 -33.59,-17.07 -46.99,-58.21 -29.92,-91.84 z" /><path
         id="path22"
         style="fill:#000000;fill-opacity:1;fill-rule:nonzero;stroke:none"
         d="m 2328.44,1753.97 c 12.07,-23.63 36.13,-37.3 60.97,-37.3 10.36,0 21.02,2.42 30.9,7.46 4.03,2.03 405.86,206.17 604.03,268.75 35.93,11.4 55.86,49.76 44.45,85.66 -11.33,35.94 -49.41,55.94 -85.67,44.61 -208.74,-66.02 -607.85,-268.79 -624.76,-277.38 -33.59,-17.07 -46.99,-58.17 -29.92,-91.8 z" /><path
         id="path24"
         style="fill:#000000;fill-opacity:1;fill-rule:nonzero;stroke:none"
         d="m 1653.98,2839.13 c -421.56,98.9 -900.582,-27.11 -920.742,-32.5 -36.359,-9.77 -58.008,-47.19 -48.238,-83.64 8.199,-30.5 35.738,-50.58 65.859,-50.58 5.903,0 11.84,0.74 17.77,2.3 4.57,1.33 465.781,122.62 854.221,31.49 36.53,-8.52 73.44,14.22 82.07,50.93 8.6,36.65 -14.22,73.36 -50.94,82 z" /><path
         id="path26"
         style="fill:#000000;fill-opacity:1;fill-rule:nonzero;stroke:none"
         d="m 1653.98,2429.52 c -421.56,98.83 -900.582,-27.11 -920.742,-32.5 -36.359,-9.77 -58.008,-47.19 -48.238,-83.64 8.199,-30.5 35.738,-50.58 65.859,-50.58 5.903,0 11.84,0.74 17.77,2.34 4.57,1.29 465.781,122.58 854.221,31.45 36.53,-8.52 73.44,14.22 82.07,50.94 8.6,36.64 -14.22,73.39 -50.94,81.99 z" /><path
         id="path28"
         style="fill:#000000;fill-opacity:1;fill-rule:nonzero;stroke:none"
         d="m 2328.44,1344.36 c 12.07,-23.63 36.13,-37.26 60.97,-37.26 10.36,0 21.02,2.38 30.9,7.42 4.03,2.03 405.86,206.17 604.03,268.79 35.93,11.36 55.86,49.76 44.45,85.66 -11.33,35.9 -49.41,55.9 -85.67,44.57 -208.74,-66.01 -607.85,-268.79 -624.76,-277.38 -33.59,-17.07 -46.99,-58.17 -29.92,-91.8 z" /><path
         id="path30"
         style="fill:#000000;fill-opacity:1;fill-rule:nonzero;stroke:none"
         d="m 1653.98,2019.91 c -421.56,98.87 -900.582,-27.03 -920.742,-32.5 -36.359,-9.77 -58.008,-47.15 -48.238,-83.63 8.199,-30.51 35.738,-50.63 65.859,-50.63 5.903,0 11.84,0.82 17.77,2.38 4.57,1.29 465.781,122.62 854.221,31.49 36.53,-8.56 73.44,14.18 82.07,50.9 8.6,36.68 -14.22,73.39 -50.94,81.99 z" /><path
         id="path32"
         style="fill:#000000;fill-opacity:1;fill-rule:nonzero;stroke:none"
         d="m 1653.98,1200.73 c -421.56,98.9 -900.582,-27.11 -920.742,-32.5 -36.359,-9.77 -58.008,-47.19 -48.238,-83.63 8.199,-30.51 35.738,-50.67 65.859,-50.67 5.903,0 11.84,0.82 17.77,2.38 4.57,1.33 465.781,122.62 854.221,31.49 36.53,-8.48 73.44,14.22 82.07,50.94 8.6,36.64 -14.22,73.36 -50.94,81.99 z" /><path
         id="path34"
         style="fill:#000000;fill-opacity:1;fill-rule:nonzero;stroke:none"
         d="m 1653.98,1610.3 c -421.56,98.94 -900.582,-27.03 -920.742,-32.5 -36.359,-9.73 -58.008,-47.15 -48.238,-83.6 8.199,-30.5 35.738,-50.66 65.859,-50.66 5.903,0 11.84,0.82 17.77,2.38 4.57,1.29 465.781,122.62 854.221,31.49 36.53,-8.56 73.44,14.18 82.07,50.94 8.6,36.64 -14.22,73.35 -50.94,81.95 z" /></g></g></svg>