<svg xmlns="http://www.w3.org/2000/svg" viewBox="0 0 511 511"><path d="M471.5 28h-432C17.72 28 0 45.72 0 67.5v256C0 345.28 17.72 363 39.5 363h160a7.5 7.5 0 0 0 0-15h-160C25.99 348 15 337.01 15 323.5v-256C15 53.99 25.99 43 39.5 43h432c13.51 0 24.5 10.99 24.5 24.5v256a7.5 7.5 0 0 0 15 0v-256c0-21.78-17.72-39.5-39.5-39.5z"/><path d="M207.5 292h-144a7.5 7.5 0 0 0 0 15h144a7.5 7.5 0 0 0 0-15zM151 155.5v-32c0-12.958-10.542-23.5-23.5-23.5h-48C66.542 100 56 110.542 56 123.5v32c0 12.958 10.542 23.5 23.5 23.5h48c12.958 0 23.5-10.542 23.5-23.5zm-80 0V147h8.5a7.5 7.5 0 0 0 0-15H71v-8.5c0-4.687 3.813-8.5 8.5-8.5H96v49H79.5c-4.687 0-8.5-3.813-8.5-8.5zm56.5 8.5H111v-49h16.5c4.687 0 8.5 3.813 8.5 8.5v8.5h-8.5a7.5 7.5 0 0 0 0 15h8.5v8.5c0 4.687-3.813 8.5-8.5 8.5zM56 251.5a7.5 7.5 0 0 0 15 0v-16a7.5 7.5 0 0 0-15 0v16zM80 235.5v16a7.5 7.5 0 0 0 15 0v-16a7.5 7.5 0 0 0-15 0zM104 235.5v16a7.5 7.5 0 0 0 15 0v-16a7.5 7.5 0 0 0-15 0zM128 235.5v16a7.5 7.5 0 0 0 15 0v-16a7.5 7.5 0 0 0-15 0zM175 251.5v-16a7.5 7.5 0 0 0-15 0v16a7.5 7.5 0 0 0 15 0zM199 251.5v-16a7.5 7.5 0 0 0-15 0v16a7.5 7.5 0 0 0 15 0zM215.5 228a7.5 7.5 0 0 0-7.5 7.5v16a7.5 7.5 0 0 0 15 0v-16a7.5 7.5 0 0 0-7.5-7.5zM247 251.5v-16a7.5 7.5 0 0 0-15 0v16a7.5 7.5 0 0 0 15 0zM415.5 179c21.78 0 39.5-17.72 39.5-39.5S437.28 100 415.5 100h-48c-21.78 0-39.5 17.72-39.5 39.5s17.72 39.5 39.5 39.5h48zM343 139.5c0-13.51 10.99-24.5 24.5-24.5h48c13.51 0 24.5 10.99 24.5 24.5S429.01 164 415.5 164h-48c-13.51 0-24.5-10.99-24.5-24.5zM351.5 228C281.196 228 224 285.196 224 355.5S281.196 483 351.5 483 479 425.804 479 355.5 421.804 228 351.5 228zm0 240C289.467 468 239 417.533 239 355.5S289.467 243 351.5 243 464 293.467 464 355.5 413.533 468 351.5 468z"/><path d="M412.803 294.197a7.5 7.5 0 0 0-10.606 0L351.5 344.894l-50.697-50.697a7.5 7.5 0 0 0-10.606 0 7.5 7.5 0 0 0 0 10.606l50.697 50.697-50.697 50.697A7.5 7.5 0 0 0 295.5 419c1.92 0 3.84-.732 5.303-2.197l50.697-50.697 50.697 50.697c1.464 1.464 3.384 2.197 5.303 2.197s3.84-.732 5.303-2.197a7.5 7.5 0 0 0 0-10.606L362.106 355.5l50.697-50.697a7.5 7.5 0 0 0 0-10.606z"/></svg>