<svg xmlns="http://www.w3.org/2000/svg" viewBox="0 0 72.959 72.959"><path d="M6.167 34.774H29v4.333a1 1 0 0 0 1 1h12.958a1 1 0 0 0 1-1v-4.333h21.875a1 1 0 0 0 1-1V1.482a1 1 0 0 0-1-1H6.167a1 1 0 0 0-1 1v32.292a1 1 0 0 0 1 1zm35.79 3.333H31v-3.333h10.958v3.333zm1-5.333H7.168V28.94h57.667v3.833H42.958zM64.834 2.482V26.94H7.167V2.482h57.666zm-51.25 13a8.208 8.208 0 0 1 8.208-8.208v8.208H30a8.208 8.208 0 1 1-16.417 0zm28.375 8.208v-6.625a1 1 0 0 1 2 0v6.625a1 1 0 0 1-2 0zm3.125 0v-9.125a1 1 0 0 1 2 0v9.125a1 1 0 0 1-2 0zm3.125 0V10.94a1 1 0 0 1 2 0v12.75a1 1 0 0 1-2 0zm3.125 0V10.315a1 1 0 0 1 2 0V23.69a1 1 0 0 1-2 0zm3.125 0v-17a1 1 0 0 1 2 0v17a1 1 0 0 1-2 0zm18.438 34.965L66.813 42.28a1 1 0 0 0-.938-.65H7.083a1 1 0 0 0-.938.65L.063 58.656a.983.983 0 0 0-.063.348v6.344a1 1 0 0 0 1 1h1.44C1.435 68.962.612 71.07.596 71.113a1 1 0 0 0 1.863.727c.034-.088 3.44-8.812 4.898-12.94 1.332-4.266 5.608-5.083 8.216-4.305.76.227 3.184 1.168 2.47 3.678-1.435 4.118-4.138 12.82-4.165 12.907a1 1 0 0 0 .955 1.296c.426 0 .82-.275.955-.704.014-.046.78-2.51 1.71-5.426h37.964c.928 2.912 1.694 5.38 1.708 5.426a1 1 0 0 0 1.91-.592c-.026-.087-2.728-8.79-4.145-12.854-.732-2.563 1.69-3.504 2.452-3.73 2.608-.78 6.883.04 8.227 4.338 1.447 4.093 4.852 12.818 4.886 12.906a1 1 0 0 0 1.863-.727 926.94 926.94 0 0 1-1.843-4.766h1.44a1 1 0 0 0 1-1v-6.344a1.058 1.058 0 0 0-.067-.348zM2 64.345v-4.343h2.832a435.42 435.42 0 0 1-1.63 4.344H2zM16.146 52.68c-1.69-.507-3.57-.48-5.298.087l1.907-4.69c.006-.013.625-1.22 3.703-1.22 2.947 0 4.1.33 4.103.33l.127.03c.006 0 .588.118.84.57.273.492.082 1.244-.127 1.788a1 1 0 0 0 1.867.717c.18-.468.275-.903.333-1.323.946.072 1.258.278 1.34.378.29.353.04 1.594-.228 2.908l-.177.885c-.423 2.18-3.74 2.124-4.996 2.02-.66-1.124-1.82-2.01-3.394-2.48zM54.82 64.345H18.138c.493-1.53.99-3.056 1.426-4.344h33.832c.432 1.28.932 2.81 1.426 4.344zm1.993-11.667c-1.57.468-2.727 1.35-3.384 2.477-1.25.096-4.585.144-5.004-2.016l-.177-.885c-.268-1.313-.52-2.554-.23-2.907.082-.1.383-.29 1.34-.37.06.417.155.85.333 1.314a1 1 0 0 0 1.867-.717c-.21-.544-.4-1.296-.126-1.79.25-.448.828-.566.827-.566a.93.93 0 0 0 .13-.03c.01-.004 1.165-.333 4.112-.333 3.08 0 3.697 1.207 3.7 1.21l1.91 4.704c-1.73-.57-3.61-.597-5.3-.09zM64.9 54.32l-2.836-6.976c-.093-.254-1.043-2.49-5.564-2.49-2.97 0-4.313.314-4.635.402-.327.067-1.507.382-2.16 1.52-.032.056-.044.12-.072.177-1.57.068-2.566.4-3.16 1.123-.894 1.088-.596 2.55-.185 4.574l.174.87c.564 2.907 3.54 3.692 6.012 3.692.126 0 .243-.01.366-.014-.013.263-.017.528.014.802H20.11c.03-.273.03-.538.018-.8.12.003.234.013.357.013 2.47 0 5.447-.785 6.012-3.693l.174-.868c.413-2.024.71-3.487-.184-4.575-.595-.726-1.563-1.054-3.16-1.124-.028-.058-.04-.122-.072-.178-.653-1.138-1.833-1.453-2.16-1.52-.322-.09-1.664-.4-4.635-.4-4.522 0-5.472 2.234-5.552 2.456L8.063 54.31c-1.085.91-1.967 2.14-2.505 3.693h-3.12l5.34-14.374H65.18l5.34 14.373H67.4c-.543-1.548-1.42-2.772-2.5-3.68zm4.855 10.024a417.615 417.615 0 0 1-1.63-4.344h2.834v4.344h-1.205z" fill="#231f20"/></svg>