<svg xmlns="http://www.w3.org/2000/svg" viewBox="0 0 67 67"><path d="M16.5 67h34c5.514 0 10-4.605 10-10.12v-22c0-5.513-4.486-10-10-10v-8.166C50.5 7.432 43.045 0 33.882 0h-.334C24.148 0 16.5 7.432 16.5 16.714v8.167c-5.514 0-10 4.487-10 10v22c0 5.515 4.486 10.12 10 10.12zm4-50.286C20.5 9.638 26.354 4 33.548 4h.334C40.957 4 46.5 9.518 46.5 16.714V25h-26v-8.286zM56.5 57a6 6 0 0 1-6 6h-34a6 6 0 0 1-6-6V35a6 6 0 0 1 6-6h34a6 6 0 0 1 6 6v22z"/><path d="M30.5 48.785v4.22c0 1.59 1.287 2.995 2.875 2.995h.25c1.588 0 2.875-1.406 2.875-2.994v-4.36a6.118 6.118 0 0 0 3.007-5.265 6.125 6.125 0 1 0-9.007 5.405z"/></svg>